<svg xmlns="http://www.w3.org/2000/svg" version="1.1" xmlns:xlink="http://www.w3.org/1999/xlink" xmlns:svgjs="http://svgjs.dev/svgjs" viewBox="0 0 1422 800"><defs><linearGradient x1="50%" y1="0%" x2="50%" y2="100%" id="ccchaos-grad"><stop stop-color="hsl(206, 75%, 49%)" stop-opacity="1" offset="0%"></stop><stop stop-color="hsl(331, 90%, 56%)" stop-opacity="1" offset="100%"></stop></linearGradient></defs><g stroke-width="2" stroke="url(#ccchaos-grad)" fill="none" stroke-linecap="round"><path d="M679.68 134.78C682.5 121.65 700.98 120.42 711.28 132.7Q718.35 139.98 725.84 146.99 733.68 153.77 741.75 160.33 749.97 166.72 758.21 172.95 766.37 179.08 774.34 185.16 781.99 191.22 789.24 197.32 801.82 209.94 812.47 223.13 819.56 237.7 824.49 253.32 825.78 261.81 826.5 270.7 826.74 280.01 826.59 289.72 826.17 299.82 825.61 310.3 825.04 321.11 824.58 332.23 824.37 343.59 824.53 355.17 825.19 366.88 826.45 378.68 828.39 390.49 831.09 402.25 834.61 413.88 838.97 425.33 844.18 436.53 850.23 447.4 857.07 457.91 864.64 467.99 872.86 477.6 881.63 486.71 890.82 495.3 900.31 503.34 909.94 510.84 919.58 517.8 929.06 524.24 938.24 530.19 946.98 535.69 955.14 540.78 968.84 549.9 979.95 558.42 988.25 573.52 989.74 585.48 987.03 597.57 983.38 611.38 981.42 619.38 979.65 628.06C977.76 641.75 961.89 653.06 948.91 655.27Q932.9 667.1 916.9 685.49 900.89 704.86 884.89 719.35 868.89 724.57 852.88 718.93 836.88 704.15 820.87 684.69 804.87 666.47 788.86 654.99 772.86 653.75 756.85 663.1 740.85 680.23 724.85 699.94 708.84 716.25 692.84 724.23 676.83 721.46 660.83 708.78 644.82 690.02 628.82 670.88 612.82 657.15 596.81 653 580.81 659.67 564.8 675.16 548.8 694.76 532.8 712.54 516.79 723.11 500.79 723.27 484.78 712.96 468.78 695.32 452.77 675.69 436.77 660.01C423.79 653.55 416.67 639.39 423.96 627.64Q434.64 613.86 445.6 601.82 456.63 592.08 467.48 583.27 477.58 575.16 487.03 566.94 495.15 557.72 502.39 547.46 508.26 534.94 513.44 520.84 515.73 512.82 517.91 504.25 520.05 495.14 522.2 485.52 524.42 475.42 526.78 464.88 529.32 453.96 532.11 442.71 535.18 431.2 538.59 419.49 542.37 407.65 546.54 395.75 551.1 383.87 556.07 372.06 561.44 360.4 567.17 348.95 573.25 337.75 579.61 326.85 586.21 316.31 593 306.14 599.88 296.37 606.8 287.03 613.68 278.1 620.44 269.6 626.99 261.5 633.28 253.8 644.55 239.59 654.5 226.26 661.96 213.91 667.89 201.86 671.56 189.78 674.19 177.4 675.83 164.1 677.41 150.06 679.05 138.67 679.68 134.78" stroke-dasharray="7 11" transform="rotate(0, 711, 400)" opacity="0.05"></path><path d="M683.89 145.98C685.79 133.34 703.7 132.12 714.55 143.92Q721.8 150.92 729.34 157.67 737.09 164.19 744.95 170.5 752.82 176.63 760.62 182.62 768.22 188.49 775.55 194.28 788.75 205.87 800.4 217.64 808.95 230.17 815.5 243.42 818.87 258.2 820.59 274.05 820.67 282.64 820.45 291.62 820.03 300.98 819.53 310.72 819.04 320.8 818.71 331.21 818.63 341.9 818.91 352.85 819.67 363.99 820.99 375.28 822.94 386.66 825.6 398.08 829 409.47 833.17 420.78 838.12 431.93 843.84 442.87 850.29 453.55 857.42 463.9 865.16 473.88 873.42 483.45 882.11 492.57 891.1 501.2 900.28 509.34 909.51 516.97 918.66 524.09 927.6 530.7 936.2 536.83 944.34 542.5 958.41 552.45 970.23 561.42 980.79 575.34 984.04 585.46 980.13 603.27 975.93 618.34C973.55 629.03 956.99 643.53 944.4 650.72Q928.88 666.25 913.37 684.98 897.85 701.65 882.34 711.57 866.82 711.97 851.3 702.73 835.79 686.45 820.27 667.69 804.76 651.72 789.24 643.03 773.72 644.05 758.21 654.5 742.69 671.44 727.18 690.12 711.66 705.3 696.14 712.71 680.63 710.28 665.11 698.68 649.6 681.17 634.08 662.68 618.56 648.38 603.05 642.29 587.53 646.13 572.02 658.81 556.5 676.77 540.98 694.98 525.47 708.32 509.95 713.04 494.44 707.83 478.92 694.14 463.4 675.82 447.89 658C435.3 647.41 428.78 630.24 436.11 621.32Q446.69 610.86 457.42 601.59 468.01 593.6 478.3 585.91 487.71 577.94 496.43 569.36 503.82 559.12 510.38 547.59 515.7 533.61 520.41 518.07 522.51 509.4 524.54 500.24 526.54 490.62 528.58 480.58 530.7 470.16 532.96 459.41 535.41 448.39 538.09 437.15 541.06 425.77 544.35 414.29 547.99 402.79 551.99 391.33 556.37 379.96 561.13 368.74 566.27 357.74 571.76 346.98 577.57 336.53 583.67 326.4 590.01 316.64 596.53 307.25 603.17 298.26 609.88 289.67 616.57 281.48 623.17 273.67 629.63 266.24 635.86 259.15 647.23 246.01 657.43 233.61 665.36 222 671.84 210.57 676.05 199.01 679.11 187.1 680.87 174.27 682.29 160.72 683.45 149.73 683.89 145.98" stroke-dasharray="10 2" transform="rotate(4.04, 711, 400)" opacity="0.09"></path><path d="M688.61 157.19C689.87 145.01 707.21 143.81 718.34 155.15Q733.03 168.37 748.04 180.7 762.7 192.33 776.31 203.48 788.3 214.45 798.19 225.57 805.7 237.16 810.79 249.55 813.63 263 814.61 277.73 814.31 293.88 813.46 311.49 812.87 330.48 813.32 350.7 815.53 371.88 820.09 393.69 827.36 415.71 837.45 437.52 850.22 458.67 865.27 478.75 881.95 497.39 899.47 514.34 916.91 529.42 933.36 542.59 947.96 553.95 960.01 563.7 969.05 572.2 974.88 579.88 976.56 595.27 972.31 613.02C969.83 621.09 953.04 638.31 940.83 649.13Q925.79 666.34 910.75 683.59 895.7 696.42 880.66 701.5 865.62 697.52 850.58 685.5 835.53 668.57 820.49 651.1 805.45 637.64 790.41 631.66 775.36 634.71 760.32 646.02 745.28 662.63 730.23 680.26 715.19 694.33 700.15 701.19 685.11 699.07 670.06 688.51 655.02 672.26 639.98 654.52 624.94 639.89 609.89 632.17 594.85 633.35 579.81 643.13 564.76 658.97 549.72 676.78 534.68 691.92 519.63 700.48 504.59 700.24 489.55 691.27 474.51 675.88 459.46 658.06C447.26 645.01 441.24 625.63 448.56 618.94Q458.93 610.73 469.32 603.3 479.45 596.08 489.03 588.52 497.83 580.09 505.68 570.36 512.48 558.97 518.26 545.73 523.13 530.53 527.32 513.44 531.14 494.62 534.95 474.36 539.14 453.02 544.09 431.04 550.12 408.86 557.45 386.92 566.2 365.65 576.35 345.37 587.73 326.37 600.05 308.8 612.91 292.72 625.83 278.1 638.31 264.78 649.87 252.56 660.09 241.13 668.67 230.17 675.45 219.36 680.44 208.34 683.85 196.83 686 184.57 688.01 164.29 688.61 157.19" stroke-dasharray="10 7" transform="rotate(8.08, 711, 400)" opacity="0.13"></path><path d="M693.66 168.39C694.54 156.7 711.34 155.51 722.47 166.38Q736.73 179.07 750.9 190.91 764.36 202.05 776.57 212.71 787.07 223.13 795.52 233.61 801.77 244.43 805.85 255.9 807.99 268.27 808.59 281.76 808.19 296.53 807.45 312.65 807.08 330.13 807.75 348.85 810.1 368.65 814.59 389.26 821.55 410.35 831.09 431.56 843.07 452.49 857.18 472.75 872.87 491.98 889.47 509.85 906.2 526.14 922.25 540.68 936.85 553.45 949.34 564.51 959.23 574.03 966.24 582.32 970.62 596.75 968.49 611.37C966.24 617.46 949.69 636.56 937.87 649.33Q923.3 666.18 908.72 680.46 894.15 688.77 879.57 689.13 865 681.45 850.42 667.57 835.84 650.79 821.27 635.11 806.69 624.28 792.12 620.88 777.54 625.71 762.97 637.63 748.39 653.8 733.81 670.35 719.24 683.34 704.66 689.68 690.09 687.84 675.51 678.28 660.93 663.27 646.36 646.38 631.78 631.66 617.21 622.6 602.63 621.37 588.05 628.26 573.48 641.63 558.9 658.29 544.33 674.27 529.75 685.75 515.17 690 500.6 686.01 486.02 674.72 471.45 658.83C459.63 645.16 454.03 624.63 461.23 619.4Q471.31 612.53 481.22 605.67 490.73 598.33 499.6 590.05 507.64 580.47 514.73 569.31 520.83 556.39 525.99 541.65 530.36 525.14 534.16 507.04 537.69 487.58 541.29 467.1 545.31 445.98 550.08 424.61 555.88 403.4 562.91 382.73 571.26 362.91 580.94 344.22 591.78 326.82 603.55 310.82 615.9 296.2 628.4 282.88 640.62 270.69 652.11 259.42 662.47 248.77 671.39 238.46 678.67 228.18 684.27 217.63 688.26 206.56 690.9 194.75 693.1 175.23 693.66 168.39" stroke-dasharray="9 8" transform="rotate(12.12, 711, 400)" opacity="0.16"></path><path d="M698.84 179.59C699.6 168.38 715.86 167.21 726.71 177.61Q740.27 189.77 753.37 201.12 765.52 211.8 776.27 221.98 785.3 231.88 792.4 241.75 797.49 251.86 800.68 262.46 802.23 273.82 802.53 286.14 802.09 299.58 801.49 314.26 801.34 330.21 802.23 347.39 804.67 365.7 809.09 384.94 815.75 404.87 824.74 425.2 835.96 445.58 849.14 465.66 863.85 485.11 879.52 503.58 895.48 520.81 911.03 536.57 925.49 550.73 938.25 563.24 948.81 574.13 956.85 583.56 963.88 598.71 964.2 612.23C962.46 617.11 946.59 636.98 935.15 649.97Q921.05 664.67 906.94 674.91 892.84 678.47 878.73 674.57 864.63 664.05 850.52 649.22 836.42 633.32 822.31 619.82 808.21 611.67 794.1 610.66 780 617.01 765.89 629.32 751.79 644.91 737.68 660.37 723.58 672.32 709.47 678.15 695.37 676.59 681.26 667.97 667.16 654.18 653.05 638.24 638.95 623.62 624.85 613.53 610.74 610.16 596.64 614.26 582.53 624.93 568.43 639.83 554.32 655.72 540.22 669.11 526.11 677.08 512.01 677.89 497.9 671.37 483.8 658.93C472.36 646.34 467.09 625.88 474.09 621.28Q483.73 614.67 493.07 607.42 501.89 599.18 509.99 589.62 517.25 578.53 523.59 565.79 529.01 551.36 533.59 535.31 537.49 517.8 540.95 499.05 544.22 479.36 547.63 459.07 551.48 438.53 556.07 418.1 561.64 398.12 568.36 378.89 576.33 360.65 585.53 343.59 595.83 327.8 607.04 313.32 618.85 300.09 630.9 288 642.8 276.86 654.15 266.46 664.57 256.54 673.76 246.83 681.5 237.04 687.67 226.94 692.29 216.3 695.5 204.93 698.21 186.16 698.84 179.59" stroke-dasharray="8 10" transform="rotate(16.16, 711, 400)" opacity="0.20"></path><path d="M703.97 190.8C704.81 180.05 720.53 178.91 730.87 188.85Q743.46 200.49 755.33 211.36 766.08 221.57 775.38 231.29 783 240.69 788.83 250 792.89 259.44 795.31 269.25 796.38 279.66 796.47 290.87 796.03 303.06 795.58 316.34 795.65 330.79 796.73 346.42 799.26 363.17 803.59 380.93 809.95 399.51 818.4 418.7 828.88 438.22 841.17 457.77 854.91 477.04 869.63 495.72 884.77 513.54 899.73 530.23 913.92 545.59 926.77 559.49 937.82 571.87 946.71 582.73 956.25 599.89 959.19 614.11C958.19 618.57 943.35 638.06 932.3 649.67Q918.68 660.85 905.06 666.53 891.44 665.55 877.82 658.13 864.19 645.74 850.57 630.85 836.95 616.43 823.33 605.36 809.71 599.84 796.09 600.99 782.46 608.56 768.84 621.05 755.22 635.97 741.6 650.34 727.98 661.29 714.36 666.64 700.73 665.33 687.11 657.6 673.49 645.02 659.87 630.08 646.25 615.76 632.63 604.93 619.01 599.74 605.38 601.23 591.76 609.09 578.14 621.77 564.52 636.73 550.9 650.99 537.28 661.71 523.66 666.74 510.04 665.08 496.41 657.07C485.37 646.97 480.32 627.71 487.02 622.98Q496.12 615.69 504.79 607.34 512.85 597.67 520.16 586.53 526.64 573.84 532.24 559.6 537.02 543.9 541.06 526.87 544.54 508.75 547.67 489.79 550.72 470.31 553.95 450.6 557.65 430.99 562.06 411.78 567.4 393.24 573.82 375.58 581.4 358.99 590.12 343.57 599.88 329.35 610.52 316.33 621.78 304.41 633.34 293.45 644.87 283.29 656.01 273.69 666.41 264.43 675.79 255.26 683.9 245.95 690.61 236.27 695.86 226.05 699.71 215.12 703.15 197.09 703.97 190.8" stroke-dasharray="10 8" transform="rotate(20.200000000000003, 711, 400)" opacity="0.24"></path><path d="M708.83 202C709.97 191.74 725.09 190.62 734.71 200.09Q746.16 211.2 756.68 221.59 766 231.36 773.87 240.63 780.17 249.55 784.85 258.33 788 267.15 789.78 276.23 790.46 285.77 790.4 295.96 790.02 306.96 789.74 318.92 790.01 331.92 791.27 346.01 793.87 361.18 798.1 377.37 804.15 394.47 812.08 412.31 821.85 430.69 833.27 449.37 846.06 468.09 859.82 486.58 874.1 504.56 888.4 521.79 902.19 538.03 914.97 553.09 926.32 566.84 935.88 579.19 943.39 590.14 948.76 599.74 951.99 608.11 953.27 615.42C953.14 620.17 939.62 638.22 928.98 647.2Q915.86 654.05 902.74 655.11 889.62 650.19 876.5 640.18 863.39 626.89 850.27 612.74 837.15 600.29 824.03 591.78 810.92 588.78 797.8 591.81 784.68 600.33 771.56 612.8 758.44 626.95 745.33 640.23 732.21 650.22 719.09 655.12 705.97 654.03 692.85 647.16 679.74 635.75 666.62 621.87 653.5 608.03 640.38 596.74 627.26 590.04 614.15 589.16 601.03 594.25 587.91 604.38 574.79 617.73 561.67 631.87 548.55 644.24 535.44 652.6 522.32 655.43 509.2 652.23C498.56 645.55 493.62 628.45 499.92 622.96Q508.37 614.35 516.29 604.44 523.55 593.13 530.06 580.39 535.77 566.24 540.67 550.79 544.84 534.18 548.4 516.62 551.49 498.36 554.35 479.65 557.19 460.78 560.26 442.03 563.81 423.65 568.05 405.88 573.16 388.92 579.28 372.93 586.46 358.01 594.71 344.2 603.93 331.49 613.99 319.84 624.68 309.13 635.72 299.23 646.83 289.94 657.69 281.07 668 272.41 677.47 263.75 685.88 254.87 693.05 245.6 698.89 235.79 703.4 225.3 707.74 208.02 708.83 202" stroke-dasharray="3 8" transform="rotate(24.24, 711, 400)" opacity="0.28"></path><path d="M713.25 213.2C714.81 203.41 729.34 202.32 738.06 211.34Q748.21 221.93 757.34 231.84 765.23 241.16 771.74 250 776.82 258.47 780.49 266.75 783.67 283.57 784.36 301.38 784.05 311.3 783.95 322.01 784.43 333.64 785.84 346.24 788.49 359.84 792.61 374.42 798.36 389.94 805.78 406.28 814.86 423.29 825.43 440.82 837.28 458.63 850.1 476.52 863.49 494.24 877.05 511.56 890.33 528.24 902.9 544.09 914.36 558.92 924.38 572.6 932.68 585.03 939.12 596.17 943.62 606.04 946.24 614.7C947.06 620.26 935.06 636.06 924.86 641.63Q912.27 643.9 899.68 640.79 887.09 632.79 874.5 621.23 861.91 607.99 849.32 595.25 836.73 585.09 824.14 579.17 811.56 578.47 798.97 583.09 786.38 592.29 773.79 604.55 761.2 617.87 748.61 630.07 736.02 639.14 723.43 643.61 710.84 642.73 698.25 636.66 685.66 626.38 673.07 613.59 660.49 600.37 647.9 588.9 635.31 581.04 622.72 578.1 610.13 580.54 597.54 587.97 584.95 599.18 572.36 612.32 559.77 625.25 547.18 635.84 534.59 642.37 522 643.76C511.8 640.92 506.88 626.57 512.71 619.96Q520.41 609.7 527.53 598.12 533.97 585.24 539.68 571.12 544.64 555.86 548.89 539.62 552.5 522.59 555.61 505 558.37 487.07 560.98 469.05 563.63 451.19 566.56 433.7 569.97 416.79 574.04 400.63 578.92 385.35 584.73 371.05 591.53 357.77 599.3 345.51 607.98 334.23 617.46 323.86 627.56 314.26 638.05 305.3 648.7 296.8 659.22 288.59 669.35 280.48 678.82 272.28 687.43 263.82 694.97 254.95 701.35 245.53 706.49 235.48 711.84 218.96 713.25 213.2" stroke-dasharray="6 2" transform="rotate(28.28, 711, 400)" opacity="0.32"></path><path d="M717.05 224.39C719.14 215.09 733.04 214.03 740.73 222.59Q749.51 232.65 757.22 242.09 763.75 250.98 769 259.38 775.24 275.19 778.31 290.74 778.32 307.4 778.22 325.62 778.89 335.95 780.44 347.13 783.12 359.2 787.12 372.2 792.56 386.09 799.49 400.83 807.9 416.32 817.66 432.45 828.6 449.06 840.46 465.98 852.95 483.01 865.71 499.96 878.38 516.62 890.6 532.78 902 548.27 912.28 562.91 921.17 576.56 928.48 589.12 934.1 600.54 938 610.78C939.79 617.43 929.44 630.47 919.67 632.37Q907.64 630.37 895.61 623.89 883.58 613.87 871.55 601.79 859.52 589.44 847.49 578.62 835.46 570.94 823.43 567.52 811.4 568.86 799.37 574.77 787.34 584.39 775.31 596.28 763.28 608.71 751.25 619.84 739.22 628.03 727.19 632.08 715.16 631.4 703.13 626.07 691.1 616.9 679.07 605.22 667.04 592.75 655.01 581.34 642.98 572.66 630.95 567.99 618.92 568.02 606.89 572.73 594.85 581.45 582.82 592.88 570.79 605.35 558.76 617.01 546.73 626.15 534.7 631.43C524.94 632.31 519.99 620.96 525.27 613.13Q532.16 601.22 538.44 588.16 544.06 574.03 548.99 558.95 553.25 543.07 556.89 526.57 560 509.66 562.72 492.53 565.18 475.4 567.57 458.47 570.07 441.93 572.86 425.95 576.13 410.68 580.03 396.22 584.69 382.65 590.19 370.02 596.6 358.32 603.89 347.53 612.04 337.57 620.93 328.35 630.43 319.76 640.35 311.65 650.49 303.86 660.61 296.23 670.48 288.61 679.86 280.84 688.56 272.77 696.38 264.28 703.2 255.27 708.93 245.64 715.29 229.87 717.05 224.39" stroke-dasharray="7 6" transform="rotate(32.32, 711, 400)" opacity="0.35"></path><path d="M720.09 235.59C722.76 226.76 735.98 225.74 742.59 233.84Q749.97 243.38 756.32 252.35 765.13 268.61 770.75 283.78 772.22 298.3 772.38 313.2 772.31 321.21 772.57 329.72 773.41 338.86 775.08 348.71 777.77 359.34 781.63 370.79 786.77 383.07 793.22 396.16 800.98 410.03 809.95 424.6 820 439.77 830.93 455.41 842.5 471.39 854.42 487.54 866.41 503.69 878.14 519.66 889.32 535.29 899.66 550.4 908.93 564.84 916.9 578.48 923.45 591.19 928.5 602.91C931.19 610.7 922.5 620.86 913.22 619.32Q901.78 613.81 890.34 605 878.9 594.07 867.46 582.44 856.02 571.64 844.58 563.1 833.14 557.94 821.7 556.83 810.26 559.92 798.82 566.81 787.38 576.59 775.94 587.97 764.5 599.46 753.06 609.54 741.62 616.9 730.18 620.56 718.74 620.04 707.3 615.42 695.86 607.29 684.42 596.73 672.98 585.12 661.54 574 650.1 564.82 638.66 558.79 627.22 556.71 615.78 558.84 604.34 564.91 592.9 574.12 581.46 585.26 570.02 596.86 558.58 607.4 547.14 615.49C537.85 619.51 532.8 611.04 537.48 602.12Q543.52 588.89 548.96 574.77 553.78 559.89 557.97 544.41 561.58 528.49 564.67 512.29 567.34 496.01 569.71 479.81 571.92 463.87 574.13 448.35 576.49 433.38 579.16 419.08 582.29 405.53 586.02 392.8 590.45 380.92 595.65 369.88 601.67 359.67 608.5 350.23 616.11 341.47 624.41 333.3 633.3 325.59 642.63 318.23 652.22 311.07 661.88 303.97 671.41 296.8 680.61 289.42 689.29 281.73 697.28 273.61 704.44 264.99 710.66 255.81 717.99 240.8 720.09 235.59" stroke-dasharray="2 10" transform="rotate(36.36, 711, 400)" opacity="0.39"></path><path d="M722.27 246.77C725.51 238.43 738.01 237.44 743.52 245.09Q749.54 254.11 754.61 262.61 761.36 278.02 765.46 292.37 766.39 305.89 766.47 319.54 767.27 334.55 769.75 351 772.42 360.28 776.14 370.26 780.97 380.98 786.96 392.44 794.09 404.65 802.31 417.57 811.5 431.13 821.5 445.27 832.15 459.89 843.2 474.87 854.43 490.07 865.57 505.37 876.38 520.61 886.6 535.64 896.02 550.32 904.44 564.51 911.7 578.08 917.7 590.92C921.2 599.66 914.13 607.13 905.36 602.81Q894.54 594.86 883.72 584.9 872.9 574.11 862.08 563.73 851.27 554.98 840.45 548.88 829.63 546.14 818.81 547.07 807.99 551.58 797.17 559.13 786.35 568.85 775.54 579.59 764.72 590.12 753.9 599.19 743.08 605.76 732.26 609.05 721.44 608.68 710.62 604.7 699.81 597.57 688.99 588.12 678.17 577.45 667.35 566.81 656.53 557.44 645.71 550.43 634.89 546.6 624.08 546.39 613.26 549.83 602.44 556.52 591.62 565.68 580.8 576.24 569.99 586.96 559.17 596.61C550.39 602.86 545.2 596.85 549.28 587.16Q554.46 573.13 559.07 558.55 563.13 543.54 566.63 528.27 569.66 512.87 572.26 497.5 574.54 482.32 576.62 467.44 578.61 453.01 580.66 439.12 582.9 425.87 585.46 413.32 588.46 401.51 592.02 390.48 596.21 380.2 601.11 370.67 606.74 361.82 613.11 353.59 620.18 345.9 627.9 338.64 636.18 331.72 644.89 325.01 653.9 318.4 663.05 311.77 672.17 305.01 681.09 298 689.65 290.67 697.69 282.92 705.06 274.7 711.67 265.95 719.85 251.71 722.27 246.77" stroke-dasharray="1 2" transform="rotate(40.400000000000006, 711, 400)" opacity="0.43"></path><path d="M723.51 257.95C727.27 250.1 739.03 249.15 743.46 256.33Q751.69 272.63 757.45 287.61 759.73 300.9 760.61 313.6 760.74 326.21 761.47 339.33 764.86 354.22 770.65 370.64 775.18 379.89 780.72 389.8 787.25 400.38 794.73 411.62 803.09 423.51 812.2 436 821.92 449.04 832.08 462.56 842.5 476.46 852.96 490.65 863.26 505 873.19 519.42 882.57 533.76 891.2 547.91 898.94 561.75 905.66 575.15C909.82 584.46 904.26 589.72 896.02 583.52Q885.85 574.34 875.68 564.38 865.52 554.63 855.35 546.12 845.18 539.7 835.02 536.04 824.85 535.51 814.68 538.17 804.52 543.75 794.35 551.66 784.18 561.11 774.01 571.12 763.85 580.66 753.68 588.76 743.51 594.58 733.35 597.52 723.18 597.3 713.01 593.91 702.85 587.73 692.68 579.37 682.51 569.7 672.34 559.71 662.18 550.42 652.01 542.79 641.84 537.6 631.68 535.39 621.51 536.37 611.34 540.46 601.17 547.22 591.01 555.97 580.84 565.81 570.67 575.73C562.42 583.13 557.11 578.95 560.55 568.98Q564.9 554.82 568.73 540.43 572.07 525.92 574.97 511.43 577.47 497.09 579.65 482.99 581.61 469.27 583.44 456 585.26 443.27 587.18 431.14 589.3 419.66 591.76 408.86 594.63 398.75 598.01 389.31 601.97 380.53 606.57 372.35 611.81 364.72 617.72 357.56 624.27 350.8 631.41 344.34 639.07 338.1 647.15 331.96 655.56 325.83 664.15 319.61 672.79 313.22 681.35 306.57 689.68 299.59 697.64 292.21 705.1 284.38 711.96 276.08 720.81 262.61 723.51 257.95" stroke-dasharray="10 0" transform="rotate(44.44, 711, 400)" opacity="0.47"></path><path d="M723.79 269.13C727.97 261.77 738.96 260.87 742.39 267.59Q748.53 282.91 752.66 297.03 754.15 309.54 754.7 321.42 755.01 332.96 756.04 344.76 759.54 357.78 765.16 371.94 769.39 379.85 774.48 388.3 780.44 397.33 787.22 406.94 794.77 417.15 803.01 427.94 811.82 439.29 821.08 451.17 830.65 463.5 840.35 476.25 850.03 489.32 859.52 502.63 868.66 516.1 877.28 529.62 885.25 543.09 892.45 556.41C897.1 565.85 892.91 569.54 885.21 562.5Q875.72 553.31 866.23 544.31 856.74 536.31 847.25 530.02 837.76 526.02 828.27 524.64 818.78 526.03 809.29 530.05 799.8 536.35 790.31 544.36 780.82 553.36 771.33 562.55 761.84 571.11 752.35 578.27 742.86 583.39 733.37 586.01 723.88 585.9 714.39 583.07 704.9 577.76 695.41 570.46 685.92 561.82 676.43 552.61 666.94 543.66 657.45 535.77 647.96 529.64 638.47 525.82 628.98 524.65 619.49 526.25 610 530.46 600.51 536.91 591.02 545.02 581.53 554.06C573.83 561.54 568.43 558.46 571.27 548.7Q574.82 535.09 577.94 521.51 580.65 508.07 583 494.86 585.06 481.97 586.89 469.49 588.58 457.47 590.21 445.97 591.88 435.03 593.68 424.69 595.72 414.96 598.06 405.83 604.27 389.58 612.03 374.88 622.63 362.22 634.93 350.35 641.97 344.67 649.42 339.03 657.19 333.32 665.19 327.48 673.3 321.44 681.42 315.12 689.41 308.49 697.17 301.47 704.59 294.05 711.55 286.2 720.88 273.51 723.79 269.13" stroke-dasharray="8 6" transform="rotate(48.48, 711, 400)" opacity="0.51"></path><path d="M723.11 280.3C727.6 273.43 737.79 272.57 740.33 278.83Q744.71 293.17 747.53 306.43 748.72 326.4 749.25 339.89 750.91 350.62 753.94 361.79 760.04 374.31 768.26 387.97 773.66 395.57 779.77 403.67 786.56 412.27 793.95 421.39 801.87 431.04 810.23 441.19 818.92 451.82 827.81 462.91 836.78 474.4 845.69 486.25 854.42 498.4 862.83 510.78 870.8 523.31 878.22 535.92C883.16 544.99 880.13 547.79 873 540.93Q855.41 525.46 837.83 515.71 820.25 514.65 802.67 522.6 785.09 537.13 767.5 553.86 749.92 567.71 732.34 574.49 714.76 572.14 697.17 561.37 679.59 545.45 662.01 529.2 644.43 517.55 626.84 514.02 609.26 519.68 591.68 532.83C584.54 539.44 579.11 536.77 581.38 527.7Q584.22 515.23 586.69 502.99 588.86 491.06 590.75 479.48 592.44 468.32 593.98 457.62 595.45 447.41 596.93 437.73 600.31 420.2 604.38 404.24 610.25 390.63 617.49 378.19 627.24 367.15 638.48 356.58 651.87 346.11 666.21 335.34 673.74 329.62 681.34 323.63 688.91 317.34 696.36 310.7 703.59 303.69 710.51 296.29 720.07 284.4 723.11 280.3" stroke-dasharray="1 4" transform="rotate(52.52, 711, 400)" opacity="0.54"></path><path d="M721.54 291.47C726.2 285.1 735.55 284.28 737.33 290.09Q740.49 303.59 742.12 315.82 742.77 326.95 743.06 337.22 743.71 346.99 745.4 356.61 748.74 366.52 754.2 377.11 762.06 388.77 772.4 401.83 785.03 416.52 799.56 432.99 815.4 451.24 831.82 471.18 848 492.57 863.14 515.08C868.19 523.38 866.09 525.9 859.54 520.04Q843.38 508.49 827.23 503.37 811.07 505.99 794.92 515.67 778.76 529.92 762.61 545.03 746.45 557.09 730.3 562.97 714.14 561.15 697.99 552.1 681.83 538.17 665.67 522.96 649.52 510.42 633.36 503.8 617.21 504.82 601.05 513.2C594.5 518.26 589.11 515.45 590.88 507.43Q595.01 486 598.24 466.07 600.95 447.87 603.6 431.51 606.7 416.95 610.7 404.05 616.02 392.56 622.94 382.15 631.62 372.43 642.05 362.96 654.03 353.33 667.23 343.16 681.16 332.1 695.25 319.89 708.91 306.37 721.54 291.47 721.54 291.47 721.54 291.47" stroke-dasharray="9 10" transform="rotate(56.56, 711, 400)" opacity="0.58"></path><path d="M719.15 302.63C723.83 296.76 732.36 296 733.53 301.33Q735.55 313.81 736.55 325.18 737 335.56 737.4 345.14 738.3 354.16 740.21 362.9 743.56 371.67 748.72 380.8 755.87 390.62 765.08 401.4 776.23 413.4 789.06 426.8 803.14 441.7 817.97 458.14 832.92 476.05 847.39 495.28C852.37 502.48 850.98 505.25 845.01 500.94Q830.3 493.89 815.6 493.01 800.89 498.51 786.18 509.17 771.47 522.67 756.76 536.05 742.05 546.4 727.35 551.45 712.64 550.1 697.93 542.64 683.22 530.7 668.51 516.9 653.8 504.24 639.09 495.5 624.38 492.58 609.67 496.13C603.71 499.28 598.44 495.92 599.79 489.18Q602.95 471.43 605.52 455.19 607.84 440.52 610.28 427.38 613.23 415.65 617.04 405.13 622.03 395.56 628.4 386.64 636.28 378.04 645.66 369.42 656.4 360.47 668.28 350.91 680.93 340.48 693.94 329.03 706.84 316.42 719.15 302.63 719.15 302.63 719.15 302.63" stroke-dasharray="9 2" transform="rotate(60.599999999999994, 711, 400)" opacity="0.62"></path><path d="M716.1 313.77C720.64 308.41 728.33 307.7 729.06 312.57Q730.27 324.01 730.9 334.5 731.3 344.14 731.88 353.04 735.72 369.26 743.24 385.08 749.69 393.37 757.83 402.26 767.58 411.97 778.76 422.69 791.11 434.56 804.26 447.68 817.78 462.09 831.21 477.77C835.94 483.71 835.05 487.01 829.68 484.51Q816.42 481.88 803.16 484.53 789.91 491.99 776.65 502.9 763.39 515.28 750.13 526.9 736.88 535.65 723.62 539.93 710.36 538.98 697.1 532.97 683.85 522.99 670.59 510.84 657.33 498.72 644.07 488.85 630.81 482.99 617.56 482.22C612.18 483.42 607.16 479.36 608.15 473.97Q610.56 459.9 612.64 447.13 614.67 435.63 616.95 425.27 619.77 415.89 623.4 407.29 628.04 399.25 633.86 391.5 640.95 383.79 649.3 375.88 658.83 367.54 669.37 358.56 680.69 348.79 692.48 338.11 710.25 320.11 716.1 313.77" stroke-dasharray="9 3" transform="rotate(64.64, 711, 400)" opacity="0.66"></path><path d="M712.52 324.92C716.8 320.07 723.65 319.41 724.07 323.82Q724.8 334.2 725.25 343.81 726.8 360.62 730.06 375.83 733.3 382.86 737.76 389.81 743.52 396.88 750.63 404.25 759.06 412.09 768.68 420.58 779.32 429.85 790.76 440.04 802.69 451.22 814.81 463.45C819.15 468.11 818.58 472.03 813.79 471.3Q801.98 472.49 790.17 477.72 778.36 486.23 766.55 496.75 754.73 507.74 742.92 517.59 731.11 524.84 719.3 528.42 707.49 527.81 695.68 523.1 683.86 514.99 672.05 504.65 660.24 493.63 648.43 483.53 636.62 475.85 624.8 471.72C620.01 471.21 615.32 466.51 616.05 462.39Q617.91 451.66 619.65 441.91 623.93 425.22 629.77 410.29 634.06 403.41 639.32 396.56 645.63 389.58 652.98 382.27 661.32 374.49 670.55 366.1 680.5 357.01 690.98 347.14 707.13 330.68 712.52 324.92" stroke-dasharray="8 11" transform="rotate(68.68, 711, 400)" opacity="0.70"></path><path d="M708.62 336.05C712.51 331.71 718.53 331.12 718.78 335.05Q719.81 352.75 721.33 368.65 725.54 382.16 732.28 394.81 737.36 400.92 743.5 407.1 750.68 413.49 758.82 420.22 767.83 427.41 777.55 435.17 787.82 443.61 798.42 452.79C802.29 456.3 801.86 460.7 797.65 461.44Q787.27 465.47 776.89 472.23 766.5 480.92 756.12 490.54 745.74 499.95 735.35 508.07 724.97 513.95 714.58 516.9 704.2 516.57 693.82 513.01 683.43 506.63 673.05 498.18 662.66 488.63 652.28 479.11 641.89 470.72 631.51 464.45C627.3 462.68 623.04 457.58 623.6 454.53Q626.71 439.48 630.42 425.98 636.53 413.82 644.79 401.65 650.32 395.25 656.7 388.49 663.89 381.26 671.83 373.49 680.41 365.11 689.51 356.09 703.8 341.23 708.62 336.05" stroke-dasharray="7 1" transform="rotate(72.72, 711, 400)" opacity="0.73"></path><path d="M704.59 347.18C707.99 343.36 713.2 342.83 713.38 346.29Q714.51 362.02 716.36 376.31 720.59 388.55 726.8 399.91 736.83 410.54 749.2 421.24 756.65 426.86 764.72 432.77 773.3 439.04 782.27 445.77C785.56 448.32 785.19 452.97 781.54 454.72Q772.56 460.42 763.58 467.67 754.6 475.82 745.62 484.15 736.64 491.9 727.66 498.38 718.68 503.01 709.7 505.38 700.72 505.28 691.74 502.72 682.76 497.91 673.78 491.31 664.8 483.48 655.82 475.15 646.84 467.04 637.86 459.89C634.21 457.41 630.46 452.23 630.91 450.01Q636.68 430.71 642.6 417.55 650.57 406.45 660.47 394.48 666.55 387.82 673.24 380.71 680.47 373.1 688.17 364.98 700.42 351.76 704.59 347.18" stroke-dasharray="2 10" transform="rotate(76.76, 711, 400)" opacity="0.77"></path><path d="M700.63 358.29C703.48 355 707.89 354.54 708.08 357.51Q709.34 371.4 711.62 383.82 715.47 394.91 721.33 404.94 729.43 414.22 739.81 423.18 752.31 432.25 766.54 441.89C769.24 443.72 768.83 448.27 765.75 450.51Q750.53 463.57 735.31 477.42 720.1 488.47 704.88 493.86 689.66 492.19 674.44 483.9 659.22 471.12 644 457.18C640.92 454.54 637.75 449.67 638.14 448.02Q640.65 439.12 644.14 430.32 649.05 421.15 655.7 411.21 664.29 400.15 674.8 387.73 687.03 373.79 700.63 358.29 700.63 358.29 700.63 358.29" stroke-dasharray="9 1" transform="rotate(80.80000000000001, 711, 400)" opacity="0.81"></path><path d="M696.95 369.39C699.22 366.63 702.86 366.24 703.09 368.73Q704.65 380.48 707.12 391.17 710.78 400.88 715.85 409.71 722.47 417.85 730.67 425.49 740.38 432.87 751.42 440.25C753.52 441.61 753.05 445.72 750.51 447.95Q737.97 459.45 725.43 470.24 712.89 478.36 700.34 482.34 687.8 481.46 675.26 475.88 662.72 466.6 650.18 455.32C647.63 452.97 645.07 448.72 645.43 447.42Q647.86 440.12 651.15 432.5 655.53 424.3 661.17 415.34 668.17 405.45 676.54 394.53 691.57 375.95 696.95 369.39" stroke-dasharray="10 8" transform="rotate(84.84, 711, 400)" opacity="0.85"></path><path d="M693.73 380.49C695.43 378.27 698.3 377.95 698.6 379.95Q700.38 389.5 702.86 398.35 710.87 413.81 721.77 427.62 728.95 433.79 737.04 439.71C738.59 440.77 738.06 444.17 736.05 446.02Q726.12 454.88 716.18 462.52 706.25 468.05 696.32 470.83 686.38 470.52 676.44 467.17 666.51 461.16 656.57 453.2C654.56 451.44 652.6 448.05 652.96 446.95Q658.67 433.7 666.63 418.87 672.1 410.34 678.47 401.11 689.71 385.82 693.73 380.49" stroke-dasharray="7 2" transform="rotate(88.88, 711, 400)" opacity="0.89"></path><path d="M691.15 391.57C692.31 389.9 694.45 389.66 694.77 391.16Q698.87 405.31 704.9 417.89 713.11 429.03 723.5 438.98C724.55 439.83 724.03 442.33 722.53 443.61Q707.75 454.16 692.98 459.3 678.2 457.71 663.42 449.79C661.92 448.7 660.55 446.3 660.9 445.36Q665.59 434.24 672.1 421.64 680.62 407.42 691.15 391.57 691.15 391.57 691.15 391.57" stroke-dasharray="11 2" transform="rotate(92.92, 711, 400)" opacity="0.92"></path><path d="M689.35 402.65C690.04 401.52 691.46 401.35 691.75 402.37Q695.14 412.05 699.43 421 704.68 429.25 710.9 436.84C711.51 437.5 711.06 439.08 710.07 439.75Q700.28 445.1 690.49 447.79 680.7 447.5 670.9 444.25C669.91 443.77 669.08 442.3 669.37 441.56Q673.03 432.94 677.56 423.58 686.17 408.07 689.35 402.65" stroke-dasharray="4 0" transform="rotate(96.96, 711, 400)" opacity="0.96"></path></g></svg>