<?xml version="1.0" encoding="UTF-8"?>
<svg id="Layer_2" data-name="Layer 2" xmlns="http://www.w3.org/2000/svg" viewBox="0 0 640.36 335.73">
  <g id="Layer_1-2" data-name="Layer 1">
    <g>
      <path d="m461.99,62.58h-106.05s.41,78.45.41,101.62c0,32.54,24.52,40.67,24.52,40.67-29.73,23.36-63.71,48.75-63.71,48.75l82.25,82.12c141.57-82.14,99.84-225.29,62.58-273.15Zm-43.86,69.08c-6.09,0-11.03-4.94-11.03-11.03s4.94-11.03,11.03-11.03,11.03,4.94,11.03,11.03-4.94,11.03-11.03,11.03Z"/>
      <path d="m603.37,62.57h-105.76c42.28,69.08,37.82,161.38-3.15,225-.26,0,48.29,48.15,48.29,48.15,121.8-69.46,114.18-204.42,60.62-273.16Z"/>
      <circle cx="159.18" cy="26.97" r="26.97"/>
      <circle cx="213.12" cy="26.97" r="26.97"/>
      <circle cx="283.75" cy="26.97" r="26.97" transform="translate(150.24 278.8) rotate(-67.5)"/>
      <path d="m327.77,62.58h-53.04s19.28,30.8,26.6,69.13h-32.26c-6.07-27.46-17.44-51.68-30.89-69.12h-105.9s0,97.63,0,101.7c0,26.7,13.84,34.84,23.87,40.27-3.18,3.18-17.73,15.03-27.14,17.45-29.29,7.17-51.11,4.67-63.37,4.67-15.63,0-38.35-12.66-38.35-38.17l-.81-101.06L0,62.26c.7,45.05,0,101.02,0,146.24,0,53.91,7.82,127.22,102.39,127.22,56.16,0,91.87-8.03,114.35-29.39,31.4-29.84,47.89-64.38,54.1-98.63,6.26.17,11.97.29,16.63.29,26.42,0,40.31-21.01,40.31-40.16,0-20.55-.02-75.38-.02-105.26Zm-133.01,69.13c-6.13,0-11.06-4.93-11.06-11.06s4.93-10.97,11.06-10.97,10.97,4.93,10.97,10.97-4.93,11.06-10.97,11.06Z"/>
    </g>
  </g>
</svg>